<svg xmlns="http://www.w3.org/2000/svg" xmlns:xlink="http://www.w3.org/1999/xlink" viewBox="0 0 20 20"><defs><style>.cls-1{fill:#fff;fill-rule:evenodd;}.cls-2{mask:url(#mask);}</style><mask id="mask" x="-8.75" y="-8.75" width="37.5" height="37.5" maskUnits="userSpaceOnUse"><g id="mask0"><path class="cls-1" d="M-8.75,10A18.75,18.75,0,1,1,10,28.75,18.74,18.74,0,0,1-8.75,10Z"/></g></mask></defs><title>social-instagram</title><g id="Camada_2" data-name="Camada 2"><g id="Camada_1-2" data-name="Camada 1"><g class="cls-2"><path class="cls-1" d="M10,0C7.29,0,6.94,0,5.88.06A7.59,7.59,0,0,0,3.45.52,4.85,4.85,0,0,0,1.68,1.68,4.85,4.85,0,0,0,.52,3.45,7.59,7.59,0,0,0,.06,5.88C0,6.94,0,7.28,0,10s0,3.06.06,4.12a7.59,7.59,0,0,0,.46,2.43,4.85,4.85,0,0,0,1.16,1.77,4.85,4.85,0,0,0,1.77,1.16,7.59,7.59,0,0,0,2.43.46C6.94,20,7.28,20,10,20s3.06,0,4.12-.06a7.59,7.59,0,0,0,2.43-.46,4.85,4.85,0,0,0,1.77-1.16,4.7,4.7,0,0,0,1.15-1.77,7.3,7.3,0,0,0,.47-2.43c0-1.06.06-1.4.06-4.12s0-3.06-.06-4.12a7.3,7.3,0,0,0-.47-2.43,4.7,4.7,0,0,0-1.15-1.77A4.94,4.94,0,0,0,16.55.52,7.59,7.59,0,0,0,14.12.06C13.05,0,12.71,0,10,0ZM9.67,1.8H10c2.67,0,3,0,4,.06a5.61,5.61,0,0,1,1.86.34A3.19,3.19,0,0,1,17.05,3,3.27,3.27,0,0,1,17.8,4.1,5.61,5.61,0,0,1,18.14,6c.05,1,.06,1.37.06,4s0,3-.06,4a5.59,5.59,0,0,1-.34,1.85A3.19,3.19,0,0,1,17.05,17a3.06,3.06,0,0,1-1.15.75,5.35,5.35,0,0,1-1.86.34c-1,.05-1.37.06-4,.06s-3,0-4-.06a5.47,5.47,0,0,1-1.86-.34A3.14,3.14,0,0,1,3,17a3.19,3.19,0,0,1-.75-1.15A5.59,5.59,0,0,1,1.86,14C1.81,13,1.8,12.67,1.8,10s0-3,.06-4A5.89,5.89,0,0,1,2.2,4.1,3.19,3.19,0,0,1,3,3,3.14,3.14,0,0,1,4.1,2.2,5.47,5.47,0,0,1,6,1.86c.92-.05,1.28-.06,3.14-.06h.57Zm4.47,2.86a1.2,1.2,0,0,1,1.2-1.2h0a1.2,1.2,0,1,1-1.2,1.2ZM10,4.86A5.14,5.14,0,1,0,15.14,10,5.13,5.13,0,0,0,10,4.86ZM13.33,10A3.33,3.33,0,1,0,10,13.33,3.33,3.33,0,0,0,13.33,10Z"/></g></g></g></svg>